<?xml version="1.0" encoding="utf-8"?>
<!-- Generator: Adobe Illustrator 16.0.0, SVG Export Plug-In . SVG Version: 6.00 Build 0)  -->
<!DOCTYPE svg PUBLIC "-//W3C//DTD SVG 1.1//EN" "http://www.w3.org/Graphics/SVG/1.1/DTD/svg11.dtd">
<svg version="1.1" id="Слой_1" xmlns="http://www.w3.org/2000/svg" xmlns:xlink="http://www.w3.org/1999/xlink" x="0px" y="0px"
	 width="67.5px" height="67.5px" viewBox="0 0 67.5 67.5" enable-background="new 0 0 67.5 67.5" xml:space="preserve">
<path marker-end="none" marker-start="none" fill="#FFFFFF" d="M15.768,65.253V63h8.993v-2.25H5.088
	c-1.566,0-2.838-1.271-2.838-2.837V18.588c0-1.566,1.272-2.838,2.838-2.838h15.167c0.006-0.888,3.111-1.656,7.614-2.022
	l-7.044-7.047c-0.183,0.048-0.375,0.072-0.57,0.072c-1.242,0-2.252-1.008-2.252-2.25s1.01-2.25,2.252-2.25
	c1.242,0,2.253,1.008,2.253,2.25c0,0.207-0.03,0.405-0.081,0.597l8.451,8.457c0.927-0.036,1.89-0.054,2.877-0.054
	c0.983,0,1.944,0.018,2.871,0.054l8.453-8.46c-0.052-0.189-0.078-0.387-0.078-0.594c0-1.242,1.011-2.25,2.253-2.25
	s2.253,1.008,2.253,2.25s-1.011,2.25-2.253,2.25c-0.197,0-0.393-0.024-0.576-0.072l-7.044,7.047c4.5,0.366,7.608,1.134,7.617,2.022
	h15.161c1.566,0,2.838,1.272,2.838,2.838v39.325c0,1.565-1.271,2.837-2.838,2.837H42.751V63h9v2.253H15.768z M56.254,51.163V23.087
	c0-1.566-1.271-2.837-2.838-2.837H14.091c-1.566,0-2.838,1.271-2.838,2.837v28.076c0,1.565,1.272,2.838,2.838,2.838h39.325
	C54.982,54.001,56.254,52.729,56.254,51.163z M22.766,43.753c-0.555-1.11-0.105-2.463,1.005-3.017
	c1.11-0.555,2.463-0.105,3.018,1.004c0.84,1.68,3.471,3.255,6.966,3.255c3.478,0,6.116-1.565,6.956-3.252
	c0.555-1.112,1.908-1.562,3.018-1.011c1.113,0.555,1.563,1.908,1.012,3.018c-1.791,3.588-6.264,5.745-10.985,5.745
	C29.006,49.495,24.551,47.326,22.766,43.753z M22.499,30.377c0-1.866,1.515-3.378,3.378-3.378s3.378,1.512,3.378,3.378
	c0,1.863-1.515,3.375-3.378,3.375S22.499,32.24,22.499,30.377z M38.254,30.374c0-1.866,1.516-3.378,3.378-3.378
	c1.863,0,3.378,1.512,3.378,3.378c0,1.863-1.515,3.375-3.378,3.375C39.77,33.749,38.254,32.237,38.254,30.374z"/>
</svg>
