<?xml version="1.0" encoding="utf-8"?>
<!-- Generator: Adobe Illustrator 16.0.0, SVG Export Plug-In . SVG Version: 6.00 Build 0)  -->
<!DOCTYPE svg PUBLIC "-//W3C//DTD SVG 1.1//EN" "http://www.w3.org/Graphics/SVG/1.1/DTD/svg11.dtd">
<svg version="1.1" id="Слой_1" xmlns="http://www.w3.org/2000/svg" xmlns:xlink="http://www.w3.org/1999/xlink" x="0px" y="0px"
	 width="67.5px" height="67.5px" viewBox="0 0 67.5 67.5" enable-background="new 0 0 67.5 67.5" xml:space="preserve">
<path marker-end="none" marker-start="none" fill="#FFFFFF" d="M15.767,65.253V63h8.993v-2.25H5.087
	c-1.565,0-2.837-1.271-2.837-2.837V18.588c0-1.566,1.272-2.838,2.837-2.838h15.168c0.006-0.888,3.111-1.656,7.613-2.022
	l-7.043-7.047c-0.183,0.048-0.375,0.072-0.57,0.072c-1.242,0-2.253-1.008-2.253-2.25s1.011-2.25,2.253-2.25
	c1.242,0,2.253,1.008,2.253,2.25c0,0.207-0.03,0.405-0.081,0.597l8.45,8.457c0.927-0.036,1.89-0.054,2.877-0.054
	c0.984,0,1.943,0.018,2.871,0.054l8.453-8.46C45.027,4.908,45,4.71,45,4.503c0-1.242,1.012-2.25,2.253-2.25
	c1.242,0,2.253,1.008,2.253,2.25s-1.011,2.25-2.253,2.25c-0.198,0-0.394-0.024-0.575-0.072l-7.044,7.047
	c4.499,0.366,7.607,1.134,7.616,2.022h15.162c1.564,0,2.837,1.272,2.837,2.838v39.325c0,1.565-1.272,2.837-2.837,2.837H42.751V63
	h8.999v2.253H15.767z M56.253,51.163V23.087c0-1.566-1.272-2.837-2.838-2.837H14.09c-1.566,0-2.838,1.271-2.838,2.837v28.076
	c0,1.565,1.272,2.838,2.838,2.838h39.325C54.98,54.001,56.253,52.729,56.253,51.163z M22.79,43.762
	c-0.555-1.109-0.105-2.463,1.005-3.017c0.305-0.153,0.629-0.228,0.953-0.237h18c0.339,0,0.682,0.075,1.004,0.234
	c1.113,0.554,1.563,1.906,1.012,3.017c-1.791,3.589-6.264,5.745-10.986,5.745C29.029,49.504,24.574,47.335,22.79,43.762z
	 M20.579,31.178c-0.438-0.441-0.438-1.152,0-1.593l4.499-4.5c0.441-0.438,1.152-0.438,1.593,0l4.5,4.5
	c0.438,0.441,0.438,1.152,0,1.593c-0.441,0.438-1.152,0.438-1.593,0l-3.702-3.705l-3.704,3.705
	C21.731,31.616,21.02,31.616,20.579,31.178z M36.328,31.178c-0.438-0.441-0.438-1.152,0-1.593l4.5-4.5
	c0.441-0.438,1.152-0.438,1.593,0l4.499,4.5c0.438,0.441,0.438,1.152,0,1.593c-0.441,0.438-1.152,0.438-1.593,0l-3.701-3.705
	l-3.705,3.705C37.48,31.616,36.77,31.616,36.328,31.178z"/>
</svg>
