<?xml version="1.0" encoding="utf-8"?>
<!-- Generator: Adobe Illustrator 16.0.0, SVG Export Plug-In . SVG Version: 6.00 Build 0)  -->
<!DOCTYPE svg PUBLIC "-//W3C//DTD SVG 1.1//EN" "http://www.w3.org/Graphics/SVG/1.1/DTD/svg11.dtd">
<svg version="1.1" id="Слой_1" xmlns="http://www.w3.org/2000/svg" xmlns:xlink="http://www.w3.org/1999/xlink" x="0px" y="0px"
	 width="67.5px" height="67.5px" viewBox="0 0 67.5 67.5" enable-background="new 0 0 67.5 67.5" xml:space="preserve">
<path marker-end="none" marker-start="none" fill="#B2B2B2" d="M15.767,65.256v-2.253h8.994v-2.25H5.088
	c-1.566,0-2.838-1.271-2.838-2.837V18.591c0-1.566,1.272-2.838,2.838-2.838h15.167c0.006-0.888,3.111-1.656,7.614-2.022
	l-7.044-7.047c-0.183,0.048-0.375,0.072-0.57,0.072c-1.242,0-2.253-1.008-2.253-2.25c0-1.242,1.011-2.25,2.253-2.25
	c1.242,0,2.253,1.008,2.253,2.25c0,0.207-0.03,0.405-0.081,0.597l8.45,8.457c0.927-0.036,1.89-0.054,2.877-0.054
	c0.984,0,1.943,0.018,2.871,0.054l8.454-8.46c-0.052-0.189-0.078-0.387-0.078-0.594c0-1.242,1.011-2.25,2.253-2.25
	s2.252,1.008,2.252,2.25c0,1.242-1.01,2.25-2.252,2.25c-0.197,0-0.393-0.024-0.576-0.072l-7.044,7.047
	c4.5,0.366,7.608,1.134,7.617,2.022h15.161c1.566,0,2.838,1.272,2.838,2.838v39.325c0,1.566-1.271,2.837-2.838,2.837H42.751v2.25
	h8.999v2.253H15.767z M56.253,51.166V23.09c0-1.566-1.272-2.837-2.838-2.837H14.09c-1.566,0-2.838,1.271-2.838,2.837v28.076
	c0,1.566,1.272,2.838,2.838,2.838h39.325C54.98,54.004,56.253,52.732,56.253,51.166z M29.258,42.751
	c0-3.726,2.015-6.749,4.496-6.749c2.48,0,4.497,3.023,4.497,6.749s-2.017,6.75-4.497,6.75
	C31.273,49.501,29.258,46.477,29.258,42.751z M36.025,30.389c0-3.096,2.514-5.613,5.613-5.613c3.096,0,5.612,2.517,5.612,5.613
	c0,3.099-2.517,5.613-5.612,5.613C38.539,36.002,36.025,33.488,36.025,30.389z M20.264,30.374c0-3.096,2.514-5.613,5.613-5.613
	c3.096,0,5.612,2.517,5.612,5.613c0,3.099-2.516,5.612-5.612,5.612C22.778,35.986,20.264,33.473,20.264,30.374z M45.001,30.389
	c0-1.851-1.513-3.363-3.362-3.363c-1.854,0-3.363,1.512-3.363,3.363c0,1.854,1.509,3.363,3.363,3.363
	C43.488,33.752,45.001,32.243,45.001,30.389z M29.24,30.374c0-1.851-1.512-3.363-3.363-3.363c-1.854,0-3.363,1.512-3.363,3.363
	c0,1.854,1.509,3.363,3.363,3.363C27.728,33.737,29.24,32.228,29.24,30.374z"/>
</svg>
