<?xml version="1.0" encoding="utf-8"?>
<!-- Generator: Adobe Illustrator 16.0.0, SVG Export Plug-In . SVG Version: 6.00 Build 0)  -->
<!DOCTYPE svg PUBLIC "-//W3C//DTD SVG 1.1//EN" "http://www.w3.org/Graphics/SVG/1.1/DTD/svg11.dtd">
<svg version="1.1" id="Слой_1" xmlns="http://www.w3.org/2000/svg" xmlns:xlink="http://www.w3.org/1999/xlink" x="0px" y="0px"
	 width="67.5px" height="67.5px" viewBox="0 0 67.5 67.5" enable-background="new 0 0 67.5 67.5" xml:space="preserve">
<path marker-end="none" marker-start="none" fill="#B2B2B2" d="M15.768,65.253V63h8.993v-2.25H5.088
	c-1.566,0-2.838-1.271-2.838-2.838V18.587c0-1.566,1.272-2.838,2.838-2.838h15.167c0.006-0.888,3.111-1.656,7.614-2.022
	l-7.044-7.046c-0.183,0.048-0.375,0.072-0.57,0.072c-1.242,0-2.252-1.008-2.252-2.25s1.01-2.25,2.252-2.25
	c1.242,0,2.253,1.008,2.253,2.25c0,0.207-0.03,0.405-0.081,0.597l8.451,8.456c0.927-0.036,1.89-0.054,2.877-0.054
	c0.983,0,1.944,0.018,2.871,0.054l8.453-8.459c-0.052-0.189-0.078-0.387-0.078-0.594c0-1.242,1.011-2.25,2.253-2.25
	s2.253,1.008,2.253,2.25s-1.011,2.25-2.253,2.25c-0.197,0-0.393-0.024-0.576-0.072l-7.044,7.046c4.5,0.366,7.608,1.134,7.617,2.022
	h15.161c1.566,0,2.838,1.272,2.838,2.838v39.325c0,1.566-1.271,2.838-2.838,2.838H42.751V63h9v2.253H15.768z M56.254,51.162V23.087
	c0-1.566-1.271-2.838-2.838-2.838H14.091c-1.566,0-2.838,1.272-2.838,2.838v28.075c0,1.566,1.272,2.838,2.838,2.838h39.325
	C54.982,54,56.254,52.729,56.254,51.162z M40.684,48.249c-0.836-1.677-3.467-3.254-6.956-3.254c-3.483,0-6.12,1.567-6.966,3.257
	c-0.555,1.109-1.908,1.561-3.018,1.005c-1.11-0.555-1.56-1.907-1.005-3.017c1.791-3.582,6.258-5.745,10.989-5.745
	c4.739,0,9.2,2.172,10.985,5.748c0.553,1.108,0.102,2.462-1.011,3.017C42.592,49.813,41.238,49.361,40.684,48.249z M42.751,38.245
	c0-0.504,0.165-0.972,0.446-1.347l1.807-5.403l1.803,5.403c0.282,0.375,0.45,0.843,0.45,1.347c0,1.241-1.011,2.25-2.253,2.25
	S42.751,39.486,42.751,38.245z M22.559,30.019c0.657-1.785,2.415-3.024,4.437-3.024c2.019,0,3.777,1.239,4.434,3.024
	c0.216,0.582-0.081,1.23-0.666,1.443c-0.582,0.216-1.23-0.081-1.443-0.666c-0.327-0.879-1.227-1.551-2.325-1.551
	c-1.101,0-2.001,0.672-2.328,1.551c-0.213,0.585-0.861,0.882-1.443,0.666C22.64,31.249,22.343,30.601,22.559,30.019z M36.059,29.983
	c0.657-1.785,2.414-3.024,4.437-3.024c2.019,0,3.776,1.239,4.435,3.024c0.215,0.582-0.082,1.23-0.666,1.443
	c-0.582,0.216-1.23-0.081-1.443-0.666c-0.327-0.879-1.228-1.551-2.325-1.551c-1.101,0-2.001,0.672-2.328,1.551
	c-0.212,0.585-0.86,0.882-1.442,0.666C36.141,31.213,35.843,30.565,36.059,29.983z"/>
</svg>
