<?xml version="1.0" encoding="utf-8"?>
<!-- Generator: Adobe Illustrator 16.0.0, SVG Export Plug-In . SVG Version: 6.00 Build 0)  -->
<!DOCTYPE svg PUBLIC "-//W3C//DTD SVG 1.1//EN" "http://www.w3.org/Graphics/SVG/1.1/DTD/svg11.dtd">
<svg version="1.1" id="Слой_1" xmlns="http://www.w3.org/2000/svg" xmlns:xlink="http://www.w3.org/1999/xlink" x="0px" y="0px"
	 width="67.5px" height="67.5px" viewBox="0 0 67.5 67.5" enable-background="new 0 0 67.5 67.5" xml:space="preserve">
<path marker-end="none" marker-start="none" fill="#B2B2B2" d="M15.767,65.253V63h8.993v-2.25H5.087
	c-1.565,0-2.837-1.271-2.837-2.838V18.587c0-1.566,1.272-2.838,2.837-2.838h15.168c0.006-0.888,3.111-1.656,7.613-2.022
	l-7.043-7.046c-0.183,0.048-0.375,0.072-0.57,0.072c-1.242,0-2.253-1.008-2.253-2.25s1.011-2.25,2.253-2.25
	c1.242,0,2.253,1.008,2.253,2.25c0,0.207-0.03,0.405-0.081,0.597l8.45,8.456c0.927-0.036,1.89-0.054,2.877-0.054
	c0.984,0,1.943,0.018,2.871,0.054l8.453-8.459C45.027,4.908,45,4.71,45,4.503c0-1.242,1.012-2.25,2.253-2.25
	c1.242,0,2.253,1.008,2.253,2.25s-1.011,2.25-2.253,2.25c-0.198,0-0.394-0.024-0.575-0.072l-7.044,7.046
	c4.499,0.366,7.607,1.134,7.616,2.022h15.162c1.564,0,2.837,1.272,2.837,2.838v39.325c0,1.566-1.272,2.838-2.837,2.838H42.751V63
	h8.999v2.253H15.767z M56.253,51.162V23.087c0-1.566-1.272-2.838-2.838-2.838H14.09c-1.566,0-2.838,1.272-2.838,2.838v28.075
	c0,1.566,1.272,2.838,2.838,2.838h39.325C54.98,54,56.253,52.729,56.253,51.162z M23.774,49.284
	c-1.119-0.534-1.596-1.882-1.059-2.999c1.64-3.436,5.786-6.744,10.577-7.678c2.256-0.438,4.497-0.53,6.446-0.135
	c1.939,0.391,3.852,1.336,4.943,3.195c0.631,1.068,0.271,2.448-0.801,3.078c-1.066,0.63-2.447,0.27-3.076-0.801
	c-0.217-0.366-0.748-0.816-1.959-1.063c-1.201-0.242-2.818-0.219-4.699,0.145c-3.495,0.681-6.393,3.146-7.374,5.197
	C26.239,49.344,24.892,49.82,23.774,49.284z M22.496,30.382c0-1.866,1.514-3.378,3.377-3.378s3.378,1.512,3.378,3.378
	c0,1.863-1.515,3.375-3.378,3.375S22.496,32.245,22.496,30.382z M38.251,30.379c0-1.866,1.515-3.378,3.378-3.378
	s3.377,1.512,3.377,3.378c0,1.863-1.514,3.375-3.377,3.375S38.251,32.242,38.251,30.379z"/>
</svg>
