<?xml version="1.0" encoding="utf-8"?>
<!-- Generator: Adobe Illustrator 16.0.0, SVG Export Plug-In . SVG Version: 6.00 Build 0)  -->
<!DOCTYPE svg PUBLIC "-//W3C//DTD SVG 1.1//EN" "http://www.w3.org/Graphics/SVG/1.1/DTD/svg11.dtd">
<svg version="1.1" id="Слой_1" xmlns="http://www.w3.org/2000/svg" xmlns:xlink="http://www.w3.org/1999/xlink" x="0px" y="0px"
	 width="67.5px" height="67.5px" viewBox="0 0 67.5 67.5" enable-background="new 0 0 67.5 67.5" xml:space="preserve">
<path marker-end="none" marker-start="none" fill="#B2B2B2" d="M15.767,65.256v-2.253h8.994v-2.25H5.088
	c-1.566,0-2.838-1.272-2.838-2.838V18.59c0-1.566,1.272-2.838,2.838-2.838h15.167c0.006-0.888,3.111-1.656,7.614-2.022l-7.044-7.046
	c-0.183,0.048-0.375,0.072-0.57,0.072c-1.242,0-2.253-1.008-2.253-2.25c0-1.242,1.011-2.25,2.253-2.25
	c1.242,0,2.253,1.008,2.253,2.25c0,0.207-0.03,0.405-0.081,0.597l8.45,8.456c0.927-0.036,1.89-0.054,2.877-0.054
	c0.984,0,1.943,0.018,2.871,0.054L45.079,5.1c-0.052-0.189-0.078-0.387-0.078-0.594c0-1.242,1.011-2.25,2.253-2.25
	s2.252,1.008,2.252,2.25c0,1.242-1.01,2.25-2.252,2.25c-0.197,0-0.393-0.024-0.576-0.072l-7.044,7.046
	c4.5,0.366,7.608,1.134,7.617,2.022h15.161c1.566,0,2.838,1.272,2.838,2.838v39.325c0,1.565-1.271,2.838-2.838,2.838H42.751v2.25
	h8.999v2.253H15.767z M56.253,51.165V23.09c0-1.566-1.272-2.838-2.838-2.838H14.09c-1.566,0-2.838,1.272-2.838,2.838v28.075
	c0,1.565,1.272,2.838,2.838,2.838h39.325C54.98,54.003,56.253,52.73,56.253,51.165z M24.74,44.998c0-1.239,1.008-2.25,2.25-2.25
	h13.53c1.238,0,2.25,1.011,2.25,2.25c0,1.242-1.012,2.249-2.25,2.249H26.99C25.748,47.247,24.74,46.24,24.74,44.998z M21.707,36.793
	c-0.438-0.441-0.438-1.152,0-1.593l2.577-2.577l-2.577-2.577c-0.438-0.441-0.438-1.152,0-1.593c0.441-0.438,1.152-0.438,1.593,0
	l2.577,2.58l2.58-2.58c0.441-0.438,1.151-0.438,1.592,0c0.438,0.441,0.438,1.152,0,1.593l-2.579,2.577l2.579,2.577
	c0.438,0.44,0.438,1.151,0,1.593c-0.441,0.438-1.151,0.438-1.592,0l-2.58-2.577L23.3,36.793
	C22.859,37.23,22.148,37.23,21.707,36.793z M37.45,36.793c-0.438-0.441-0.438-1.152,0-1.593l2.577-2.577l-2.577-2.577
	c-0.438-0.441-0.438-1.152,0-1.593c0.44-0.438,1.151-0.438,1.593,0l2.577,2.58l2.58-2.58c0.44-0.438,1.151-0.438,1.593,0
	c0.438,0.441,0.438,1.152,0,1.593l-2.58,2.577l2.58,2.577c0.438,0.44,0.438,1.151,0,1.593c-0.441,0.438-1.152,0.438-1.593,0
	l-2.58-2.577l-2.577,2.577C38.602,37.23,37.891,37.23,37.45,36.793z"/>
</svg>
