<?xml version="1.0" encoding="utf-8"?>
<!-- Generator: Adobe Illustrator 16.0.0, SVG Export Plug-In . SVG Version: 6.00 Build 0)  -->
<!DOCTYPE svg PUBLIC "-//W3C//DTD SVG 1.1//EN" "http://www.w3.org/Graphics/SVG/1.1/DTD/svg11.dtd">
<svg version="1.1" id="Слой_1" xmlns="http://www.w3.org/2000/svg" xmlns:xlink="http://www.w3.org/1999/xlink" x="0px" y="0px"
	 width="67.5px" height="67.5px" viewBox="0 0 67.5 67.5" enable-background="new 0 0 67.5 67.5" xml:space="preserve">
<path marker-end="none" marker-start="none" fill="#FFFFFF" d="M15.768,65.253V63h8.992v-2.25H5.088
	c-1.566,0-2.838-1.271-2.838-2.838V18.586c0-1.564,1.272-2.836,2.838-2.836h15.166c0.006-0.888,3.112-1.656,7.614-2.022
	l-7.044-7.047c-0.182,0.048-0.374,0.072-0.57,0.072c-1.242,0-2.252-1.008-2.252-2.25s1.01-2.25,2.252-2.25
	c1.242,0,2.254,1.008,2.254,2.25c0,0.207-0.03,0.405-0.082,0.597l8.452,8.457c0.926-0.036,1.89-0.054,2.876-0.054
	c0.984,0,1.943,0.018,2.872,0.054l8.454-8.46c-0.053-0.189-0.078-0.387-0.078-0.594c0-1.242,1.01-2.25,2.252-2.25
	s2.254,1.008,2.254,2.25s-1.012,2.25-2.254,2.25c-0.197,0-0.393-0.024-0.576-0.072l-7.044,7.047c4.5,0.366,7.608,1.134,7.618,2.022
	h15.16c1.566,0,2.838,1.272,2.838,2.836v39.326c0,1.566-1.271,2.838-2.838,2.838h-19.66V63h8.998v2.253H15.768z M56.253,51.162
	V23.086c0-1.566-1.272-2.838-2.838-2.838H14.091c-1.566,0-2.838,1.272-2.838,2.838v28.076c0,1.566,1.272,2.838,2.838,2.838h39.324
	C54.98,54,56.253,52.729,56.253,51.162z M29.972,49.432c-1.56-0.164-3.108-0.636-4.35-1.598c-0.982-0.762-1.162-2.176-0.4-3.156
	c0.762-0.982,2.176-1.162,3.156-0.4c0.382,0.295,1.042,0.574,2.064,0.679c1.012,0.108,2.254,0.034,3.648-0.252
	c1.842-0.378,3.574-1.347,4.895-2.556c0.914-0.84,2.34-0.776,3.176,0.138c0.84,0.916,0.777,2.34-0.139,3.178
	c-1.842,1.688-4.289,3.086-7.027,3.647C33.26,49.468,31.544,49.598,29.972,49.432z M22.496,30.382c0-1.866,1.514-3.378,3.378-3.378
	c1.862,0,3.378,1.512,3.378,3.378c0,1.864-1.516,3.376-3.378,3.376C24.01,33.758,22.496,32.246,22.496,30.382z M38.252,30.38
	c0-1.866,1.514-3.378,3.378-3.378c1.862,0,3.378,1.512,3.378,3.378c0,1.862-1.516,3.374-3.378,3.374
	C39.766,33.754,38.252,32.242,38.252,30.38z"/>
</svg>
