<?xml version="1.0" encoding="utf-8"?>
<!-- Generator: Adobe Illustrator 16.0.0, SVG Export Plug-In . SVG Version: 6.00 Build 0)  -->
<!DOCTYPE svg PUBLIC "-//W3C//DTD SVG 1.1//EN" "http://www.w3.org/Graphics/SVG/1.1/DTD/svg11.dtd">
<svg version="1.1" id="Слой_1" xmlns="http://www.w3.org/2000/svg" xmlns:xlink="http://www.w3.org/1999/xlink" x="0px" y="0px"
	 width="67.5px" height="67.5px" viewBox="0 0 67.5 67.5" enable-background="new 0 0 67.5 67.5" xml:space="preserve">
<path marker-end="none" marker-start="none" fill="#FFFFFF" d="M15.768,65.256v-2.253h8.994v-2.25H5.089
	c-1.566,0-2.838-1.272-2.838-2.838V18.59c0-1.566,1.272-2.838,2.838-2.838h15.167c0.006-0.888,3.111-1.656,7.614-2.022l-7.044-7.046
	c-0.183,0.048-0.375,0.072-0.57,0.072c-1.242,0-2.253-1.008-2.253-2.25c0-1.242,1.011-2.25,2.253-2.25
	c1.242,0,2.253,1.008,2.253,2.25c0,0.207-0.03,0.405-0.081,0.597l8.45,8.456c0.927-0.036,1.89-0.054,2.877-0.054
	c0.983,0,1.944,0.018,2.871,0.054L45.08,5.1c-0.051-0.189-0.078-0.387-0.078-0.594c0-1.242,1.012-2.25,2.253-2.25
	c1.242,0,2.252,1.008,2.252,2.25c0,1.242-1.01,2.25-2.252,2.25c-0.198,0-0.394-0.024-0.575-0.072l-7.045,7.046
	c4.5,0.366,7.608,1.134,7.617,2.022h15.161c1.565,0,2.838,1.272,2.838,2.838v39.325c0,1.565-1.272,2.838-2.838,2.838H42.752v2.25
	h8.999v2.253H15.768z M56.254,51.165V23.09c0-1.566-1.271-2.838-2.838-2.838H14.091c-1.566,0-2.838,1.272-2.838,2.838v28.075
	c0,1.565,1.272,2.838,2.838,2.838h39.325C54.982,54.003,56.254,52.73,56.254,51.165z M24.741,44.998c0-1.239,1.008-2.25,2.25-2.25
	H40.52c1.239,0,2.25,1.011,2.25,2.25c0,1.242-1.011,2.249-2.25,2.249H26.991C25.749,47.247,24.741,46.24,24.741,44.998z
	 M22.499,30.374c0-1.866,1.515-3.378,3.378-3.378s3.378,1.512,3.378,3.378c0,1.863-1.515,3.375-3.378,3.375
	S22.499,32.237,22.499,30.374z M38.254,30.371c0-1.866,1.516-3.378,3.378-3.378c1.863,0,3.378,1.512,3.378,3.378
	c0,1.863-1.515,3.375-3.378,3.375C39.77,33.746,38.254,32.234,38.254,30.371z"/>
</svg>
